<?xml version="1.0" encoding="UTF-8"?>
<svg xmlns="http://www.w3.org/2000/svg" xmlns:xlink="http://www.w3.org/1999/xlink" width="90px" height="90px" viewBox="0 0 90 90" version="1.1">
<g id="surface1">
<path style=" stroke:none;fill-rule:nonzero;fill:rgb(0%,0%,0%);fill-opacity:1;" d="M 41.648438 3.988281 C 41.304688 4.121094 40.863281 4.347656 40.683594 4.53125 C 40.503906 4.691406 32.214844 13.898438 22.253906 24.984375 C 9.15625 39.585938 3.972656 45.457031 3.484375 46.308594 C 2.601562 47.78125 1.765625 49.890625 1.113281 52.210938 C 0.164062 55.628906 0.0976562 56.019531 0.0976562 58.785156 C 0.0976562 61.746094 0.390625 63.296875 1.375 65.570312 C 2.746094 68.742188 5.609375 71.929688 8.503906 73.550781 C 9.125 73.894531 15.746094 75.9375 30.167969 80.222656 C 41.597656 83.605469 51.246094 86.417969 51.640625 86.46875 C 52.636719 86.582031 53.632812 86.140625 54.484375 85.226562 C 56.25 83.328125 88.578125 44.230469 88.824219 43.691406 C 89.214844 42.859375 89.183594 41.632812 88.757812 40.46875 C 88.203125 38.933594 88.234375 36.351562 88.855469 34.46875 C 89.28125 33.144531 89.296875 32.980469 89.117188 32.179688 C 88.839844 31.050781 87.742188 29.890625 86.664062 29.597656 C 84.914062 29.121094 83.148438 30.167969 82.429688 32.132812 C 81.742188 33.980469 81.5625 34.910156 81.480469 36.953125 C 81.433594 38.441406 81.480469 39.324219 81.660156 40.207031 L 81.921875 41.417969 L 81.285156 42.171875 C 80.941406 42.578125 73.941406 51.015625 65.734375 60.910156 C 57.527344 70.804688 50.789062 78.929688 50.753906 78.960938 C 50.675781 79.0625 11.691406 67.484375 11.039062 67.15625 C 9.417969 66.355469 8.109375 64.753906 7.523438 62.824219 C 7.015625 61.171875 6.785156 58.851562 7.015625 57.296875 C 7.261719 55.53125 7.441406 54.925781 8.0625 54.027344 C 8.765625 52.980469 9.566406 52.585938 11.121094 52.523438 C 12.3125 52.457031 12.835938 52.605469 30.085938 57.558594 C 39.847656 60.371094 48.125 62.742188 48.484375 62.824219 C 49.398438 63.035156 50.640625 62.742188 51.394531 62.121094 C 52.179688 61.464844 88.789062 19.261719 89.148438 18.59375 C 90.066406 16.890625 89.328125 14.585938 87.613281 13.769531 C 86.746094 13.359375 43.839844 3.761719 42.921875 3.761719 C 42.5625 3.777344 41.992188 3.875 41.648438 3.988281 Z M 55.757812 20.765625 C 62.824219 22.5 68.824219 24.003906 69.085938 24.101562 C 70.441406 24.675781 70.3125 25.34375 68.351562 27.714844 C 66.484375 29.957031 65.765625 30.414062 64.132812 30.414062 C 63.347656 30.414062 60.027344 29.660156 49.988281 27.210938 C 42.777344 25.441406 36.808594 23.957031 36.710938 23.90625 C 36.171875 23.628906 35.808594 23.121094 35.808594 22.664062 C 35.808594 22.269531 36.136719 21.78125 37.265625 20.441406 C 38.050781 19.492188 38.902344 18.542969 39.128906 18.332031 C 39.703125 17.808594 40.929688 17.480469 42.023438 17.5625 C 42.515625 17.609375 48.695312 19.050781 55.757812 20.765625 Z M 55.757812 20.765625 "/>
</g>
</svg>
